<?xml version="1.0" standalone="no"?>
<!DOCTYPE svg PUBLIC "-//W3C//DTD SVG 20010904//EN"
 "http://www.w3.org/TR/2001/REC-SVG-20010904/DTD/svg10.dtd">
<svg version="1.0" xmlns="http://www.w3.org/2000/svg"
 width="409.000000pt" height="139.000000pt" viewBox="0 0 409.000000 139.000000"
 preserveAspectRatio="xMidYMid meet">

<g transform="translate(0.000000,139.000000) scale(0.100000,-0.100000)"
fill="#2A7AE4" stroke="none">
<path d="M100 710 l0 -580 22 5 c13 3 91 16 173 29 168 27 183 32 240 73 100
73 119 171 113 587 -3 278 -4 282 -29 337 -50 107 -111 129 -351 129 l-168 0
0 -580z m324 419 c14 -7 30 -25 36 -42 6 -18 10 -149 10 -339 0 -347 -3 -368
-62 -392 -18 -7 -54 -16 -80 -19 l-48 -5 0 404 0 404 60 0 c32 0 70 -5 84 -11z"/>
<path d="M760 760 c0 -498 1 -530 18 -530 9 0 80 6 157 14 77 8 177 18 223 21
l82 7 0 75 0 76 -127 -8 c-71 -4 -139 -8 -153 -9 l-25 -1 -3 157 -2 156 107 7
c60 3 115 7 123 8 11 2 15 18 17 70 l1 67 -124 0 -124 0 0 140 0 140 155 0
155 0 0 70 0 70 -240 0 -240 0 0 -530z"/>
<path d="M1300 1285 c0 -3 18 -106 40 -228 35 -199 130 -755 130 -764 0 -6
245 -2 256 5 6 4 19 57 28 117 26 160 146 837 152 858 5 15 -3 17 -78 17 l-84
0 -65 -390 c-35 -214 -67 -386 -70 -382 -3 4 -25 126 -48 272 -24 146 -52 318
-63 383 l-21 117 -89 0 c-48 0 -88 -2 -88 -5z"/>
<path d="M1990 795 l0 -495 90 0 90 0 0 210 0 210 110 0 110 0 0 70 0 70 -110
0 -110 0 0 140 c0 77 1 143 3 148 1 4 63 7 137 7 74 0 136 3 138 8 1 4 2 34 2
67 l0 60 -230 0 -230 0 0 -495z"/>
<path d="M2540 791 l0 -499 83 -6 c45 -3 145 -10 223 -16 77 -5 146 -10 152
-10 8 0 12 23 12 74 0 84 -2 86 -78 86 -26 0 -84 3 -129 7 l-83 6 0 428 0 429
-90 0 -90 0 0 -499z"/>
<path d="M3080 771 l0 -518 61 -7 c34 -3 75 -6 90 -6 l29 0 0 525 0 525 -90 0
-90 0 0 -519z"/>
<path d="M3363 1276 c3 -8 45 -123 93 -255 l86 -240 -90 -253 c-50 -139 -93
-265 -97 -279 -7 -26 -6 -27 70 -34 43 -4 81 -3 85 2 4 4 38 101 76 215 38
114 70 206 71 204 3 -3 91 -294 127 -417 l16 -56 90 -15 c52 -8 90 -11 90 -5
0 15 -56 201 -125 416 l-65 204 90 259 c49 142 90 261 90 264 0 2 -37 4 -81 2
l-81 -3 -64 -185 c-35 -102 -65 -189 -67 -195 -2 -5 -33 78 -69 185 l-65 195
-93 3 c-78 2 -92 1 -87 -12z"/>
</g>
</svg>
